<svg width="29" height="29" viewBox="0 0 29 29" fill="none" xmlns="http://www.w3.org/2000/svg">
<path d="M14.6918 0.758789H14.6174C11.6255 0.758773 9.28077 0.758759 7.45133 1.00472C5.57879 1.25648 4.10119 1.78184 2.94142 2.94162C1.78165 4.10139 1.25628 5.57899 1.00452 7.45153C0.758561 9.28097 0.758574 11.6257 0.758591 14.6176V14.7664C0.758574 17.7583 0.758561 20.103 1.00452 21.9324C1.25628 23.805 1.78165 25.2826 2.94142 26.4424C4.10119 27.6021 5.57879 28.1275 7.45133 28.3793C9.28078 28.6252 11.6255 28.6252 14.6174 28.6252H14.7662C17.7581 28.6252 20.1028 28.6252 21.9323 28.3793C23.8048 28.1275 25.2824 27.6021 26.4422 26.4424C27.6019 25.2826 28.1273 23.805 28.3791 21.9324C28.625 20.103 28.625 17.7583 28.625 14.7663V14.692C28.625 14.1551 28.1898 13.7199 27.6529 13.7199C27.116 13.7199 26.6808 14.1551 26.6808 14.692C26.6808 17.7744 26.6788 19.9885 26.4522 21.6734C26.2295 23.3303 25.8058 24.3293 25.0674 25.0676C24.3291 25.806 23.3302 26.2297 21.6732 26.4524C19.9883 26.679 17.7742 26.681 14.6918 26.681C11.6093 26.681 9.3953 26.679 7.71038 26.4524C6.05343 26.2297 5.05449 25.806 4.31615 25.0676C3.57782 24.3293 3.15413 23.3303 2.93135 21.6734C2.70482 19.9885 2.70276 17.7744 2.70276 14.692C2.70276 11.6095 2.70482 9.3955 2.93135 7.71058C3.15413 6.05363 3.57782 5.05469 4.31615 4.31635C5.05449 3.57801 6.05343 3.15432 7.71038 2.93155C9.3953 2.70502 11.6093 2.70296 14.6918 2.70296C15.2287 2.70296 15.6639 2.26774 15.6639 1.73087C15.6639 1.19401 15.2287 0.758789 14.6918 0.758789Z" fill="white"/>
<path d="M15.3005 12.7085C14.9209 13.0881 14.9209 13.7036 15.3005 14.0832C15.6802 14.4629 16.2956 14.4629 16.6753 14.0832L26.6808 4.07769V8.65697C26.6808 9.19384 27.116 9.62905 27.6529 9.62905C28.1898 9.62905 28.625 9.19384 28.625 8.65697V1.73087C28.625 1.19401 28.1898 0.758789 27.6529 0.758789H20.7268C20.1899 0.758789 19.7547 1.19401 19.7547 1.73087C19.7547 2.26774 20.1899 2.70296 20.7268 2.70296H25.3061L15.3005 12.7085Z" fill="white"/>
</svg>
