<svg width="517" height="43" viewBox="0 0 517 43" fill="none" xmlns="http://www.w3.org/2000/svg">
<g clip-path="url(#clip0_1_9)">
<g filter="url(#filter0_d_1_9)">
<path d="M486.45 8.28125C481.004 8.28125 476.365 12.3532 476.365 17.6417C476.365 21.29 478.073 24.3615 480.337 26.9058C482.593 29.4414 485.504 31.5698 488.136 33.3511L492.677 36.4246C493.174 36.7612 493.826 36.7612 494.323 36.4246L498.864 33.3511C501.496 31.5698 504.407 29.4414 506.663 26.9058C508.927 24.3615 510.635 21.29 510.635 17.6417C510.635 12.3532 505.996 8.28125 500.55 8.28125C497.743 8.28125 495.273 9.59752 493.5 11.3007C491.727 9.59752 489.257 8.28125 486.45 8.28125Z" fill="#F33232"/>
</g>
<g filter="url(#filter1_d_1_9)">
<path d="M440.625 10.5677C436.087 10.5677 432.22 13.961 432.22 18.3681C432.22 21.4083 433.644 23.9679 435.531 26.0882C437.411 28.2012 439.837 29.9748 442.03 31.4593L445.814 34.0205C446.228 34.301 446.772 34.301 447.186 34.0205L450.97 31.4593C453.163 29.9748 455.589 28.2012 457.469 26.0882C459.356 23.9679 460.779 21.4083 460.779 18.3681C460.779 13.961 456.913 10.5677 452.375 10.5677C450.036 10.5677 447.977 11.6646 446.5 13.0839C445.023 11.6646 442.964 10.5677 440.625 10.5677Z" fill="#F33232"/>
</g>
<g filter="url(#filter2_d_1_9)">
<path d="M392.45 8.28125C387.004 8.28125 382.365 12.3532 382.365 17.6417C382.365 21.29 384.073 24.3615 386.337 26.9058C388.593 29.4414 391.504 31.5698 394.136 33.3511L398.677 36.4246C399.174 36.7612 399.826 36.7612 400.323 36.4246L404.864 33.3511C407.496 31.5698 410.407 29.4414 412.663 26.9058C414.927 24.3615 416.635 21.29 416.635 17.6417C416.635 12.3532 411.996 8.28125 406.55 8.28125C403.743 8.28125 401.273 9.59752 399.5 11.3007C397.727 9.59752 395.257 8.28125 392.45 8.28125Z" fill="#F33232"/>
</g>
<g filter="url(#filter3_d_1_9)">
<path d="M346.625 10.5677C342.087 10.5677 338.22 13.961 338.22 18.3681C338.22 21.4083 339.644 23.9679 341.531 26.0882C343.411 28.2012 345.837 29.9748 348.03 31.4593L351.814 34.0205C352.228 34.301 352.772 34.301 353.186 34.0205L356.97 31.4593C359.163 29.9748 361.589 28.2012 363.469 26.0882C365.356 23.9679 366.78 21.4083 366.78 18.3681C366.78 13.961 362.913 10.5677 358.375 10.5677C356.036 10.5677 353.977 11.6646 352.5 13.0839C351.023 11.6646 348.964 10.5677 346.625 10.5677Z" fill="#F33232"/>
</g>
<g filter="url(#filter4_d_1_9)">
<path d="M298.45 8.28125C293.004 8.28125 288.365 12.3532 288.365 17.6417C288.365 21.29 290.073 24.3615 292.337 26.9058C294.593 29.4414 297.504 31.5698 300.136 33.3511L304.677 36.4246C305.174 36.7612 305.826 36.7612 306.323 36.4246L310.864 33.3511C313.496 31.5698 316.407 29.4414 318.663 26.9058C320.927 24.3615 322.635 21.29 322.635 17.6417C322.635 12.3532 317.996 8.28125 312.55 8.28125C309.743 8.28125 307.273 9.59752 305.5 11.3007C303.727 9.59752 301.257 8.28125 298.45 8.28125Z" fill="#F33232"/>
</g>
<g filter="url(#filter5_d_1_9)">
<path d="M252.625 10.5677C248.087 10.5677 244.22 13.961 244.22 18.3681C244.22 21.4083 245.644 23.9679 247.531 26.0882C249.411 28.2012 251.837 29.9748 254.03 31.4593L257.814 34.0205C258.228 34.301 258.772 34.301 259.186 34.0205L262.97 31.4593C265.163 29.9748 267.589 28.2012 269.469 26.0882C271.356 23.9679 272.78 21.4083 272.78 18.3681C272.78 13.961 268.913 10.5677 264.375 10.5677C262.036 10.5677 259.977 11.6646 258.5 13.0839C257.023 11.6646 254.964 10.5677 252.625 10.5677Z" fill="#F33232"/>
</g>
<path d="M204.45 8.28125C199.004 8.28125 194.365 12.3532 194.365 17.6417C194.365 21.29 196.073 24.3615 198.337 26.9058C200.593 29.4414 203.504 31.5698 206.136 33.3511L210.677 36.4246C211.174 36.7612 211.826 36.7612 212.323 36.4246L216.864 33.3511C219.496 31.5698 222.407 29.4414 224.663 26.9058C226.927 24.3615 228.635 21.29 228.635 17.6417C228.635 12.3532 223.996 8.28125 218.55 8.28125C215.743 8.28125 213.273 9.59752 211.5 11.3007C209.727 9.59752 207.257 8.28125 204.45 8.28125Z" fill="#F33232"/>
<path d="M158.625 10.5677C154.087 10.5677 150.22 13.961 150.22 18.3681C150.22 21.4083 151.644 23.9679 153.531 26.0882C155.411 28.2012 157.837 29.9748 160.03 31.4593L163.814 34.0205C164.228 34.301 164.772 34.301 165.186 34.0205L168.97 31.4593C171.163 29.9748 173.589 28.2012 175.469 26.0882C177.356 23.9679 178.78 21.4083 178.78 18.3681C178.78 13.961 174.913 10.5677 170.375 10.5677C168.036 10.5677 165.977 11.6646 164.5 13.0839C163.023 11.6646 160.964 10.5677 158.625 10.5677Z" fill="#F33232"/>
<path d="M113.485 12.2826C109.628 12.2826 106.342 15.1669 106.342 18.9129C106.342 21.4971 107.552 23.6727 109.155 25.475C110.754 27.271 112.816 28.7786 114.68 30.0404L117.896 32.2174C118.248 32.4559 118.71 32.4559 119.062 32.2174L122.279 30.0404C124.143 28.7786 126.205 27.271 127.803 25.475C129.407 23.6727 130.617 21.4971 130.617 18.9129C130.617 15.1669 127.33 12.2826 123.473 12.2826C121.484 12.2826 119.735 13.2149 118.479 14.4213C117.224 13.2149 115.474 12.2826 113.485 12.2826Z" fill="#F33232"/>
<path d="M66.3875 13.9974C63.2108 13.9974 60.5043 16.3727 60.5043 19.4576C60.5043 21.5858 61.5009 23.3775 62.8216 24.8617C64.1378 26.3408 65.8359 27.5824 67.371 28.6215L70.0197 30.4144C70.3098 30.6107 70.6902 30.6107 70.9803 30.4144L73.629 28.6215C75.1641 27.5824 76.8622 26.3408 78.1784 24.8617C79.4991 23.3775 80.4957 21.5858 80.4957 19.4576C80.4957 16.3727 77.7892 13.9974 74.6125 13.9974C72.975 13.9974 71.534 14.7652 70.5 15.7587C69.466 14.7652 68.025 13.9974 66.3875 13.9974Z" fill="#F33232"/>
<path d="M21.2479 15.7122C18.7519 15.7122 16.6254 17.5786 16.6254 20.0024C16.6254 21.6746 17.4084 23.0823 18.4461 24.2485C19.4803 25.4107 20.8145 26.3861 22.0207 27.2026L24.1018 28.6113C24.3297 28.7656 24.6286 28.7656 24.8565 28.6113L26.9376 27.2026C28.1438 26.3861 29.478 25.4107 30.5122 24.2485C31.5499 23.0823 32.3329 21.6746 32.3329 20.0024C32.3329 17.5786 30.2064 15.7122 27.7104 15.7122C26.4238 15.7122 25.2916 16.3155 24.4791 17.0961C23.6667 16.3155 22.5345 15.7122 21.2479 15.7122Z" fill="#F33232"/>
</g>
<defs>
<filter id="filter0_d_1_9" x="468.531" y="2.40625" width="49.9375" height="44.0625" filterUnits="userSpaceOnUse" color-interpolation-filters="sRGB">
<feFlood flood-opacity="0" result="BackgroundImageFix"/>
<feColorMatrix in="SourceAlpha" type="matrix" values="0 0 0 0 0 0 0 0 0 0 0 0 0 0 0 0 0 0 127 0" result="hardAlpha"/>
<feOffset dy="1.95833"/>
<feGaussianBlur stdDeviation="3.91667"/>
<feComposite in2="hardAlpha" operator="out"/>
<feColorMatrix type="matrix" values="0 0 0 0 0.883333 0 0 0 0 0.0184028 0 0 0 0 0.0184028 0 0 0 0.46 0"/>
<feBlend mode="normal" in2="BackgroundImageFix" result="effect1_dropShadow_1_9"/>
<feBlend mode="normal" in="SourceGraphic" in2="effect1_dropShadow_1_9" result="shape"/>
</filter>
<filter id="filter1_d_1_9" x="424.387" y="4.69271" width="44.2257" height="39.3299" filterUnits="userSpaceOnUse" color-interpolation-filters="sRGB">
<feFlood flood-opacity="0" result="BackgroundImageFix"/>
<feColorMatrix in="SourceAlpha" type="matrix" values="0 0 0 0 0 0 0 0 0 0 0 0 0 0 0 0 0 0 127 0" result="hardAlpha"/>
<feOffset dy="1.95833"/>
<feGaussianBlur stdDeviation="3.91667"/>
<feComposite in2="hardAlpha" operator="out"/>
<feColorMatrix type="matrix" values="0 0 0 0 0.883333 0 0 0 0 0.0184028 0 0 0 0 0.0184028 0 0 0 0.76 0"/>
<feBlend mode="normal" in2="BackgroundImageFix" result="effect1_dropShadow_1_9"/>
<feBlend mode="normal" in="SourceGraphic" in2="effect1_dropShadow_1_9" result="shape"/>
</filter>
<filter id="filter2_d_1_9" x="374.531" y="2.40625" width="49.9375" height="44.0625" filterUnits="userSpaceOnUse" color-interpolation-filters="sRGB">
<feFlood flood-opacity="0" result="BackgroundImageFix"/>
<feColorMatrix in="SourceAlpha" type="matrix" values="0 0 0 0 0 0 0 0 0 0 0 0 0 0 0 0 0 0 127 0" result="hardAlpha"/>
<feOffset dy="1.95833"/>
<feGaussianBlur stdDeviation="3.91667"/>
<feComposite in2="hardAlpha" operator="out"/>
<feColorMatrix type="matrix" values="0 0 0 0 0.883333 0 0 0 0 0.0184028 0 0 0 0 0.0184028 0 0 0 0.46 0"/>
<feBlend mode="normal" in2="BackgroundImageFix" result="effect1_dropShadow_1_9"/>
<feBlend mode="normal" in="SourceGraphic" in2="effect1_dropShadow_1_9" result="shape"/>
</filter>
<filter id="filter3_d_1_9" x="330.387" y="4.69271" width="44.2257" height="39.3299" filterUnits="userSpaceOnUse" color-interpolation-filters="sRGB">
<feFlood flood-opacity="0" result="BackgroundImageFix"/>
<feColorMatrix in="SourceAlpha" type="matrix" values="0 0 0 0 0 0 0 0 0 0 0 0 0 0 0 0 0 0 127 0" result="hardAlpha"/>
<feOffset dy="1.95833"/>
<feGaussianBlur stdDeviation="3.91667"/>
<feComposite in2="hardAlpha" operator="out"/>
<feColorMatrix type="matrix" values="0 0 0 0 0.883333 0 0 0 0 0.0184028 0 0 0 0 0.0184028 0 0 0 0.76 0"/>
<feBlend mode="normal" in2="BackgroundImageFix" result="effect1_dropShadow_1_9"/>
<feBlend mode="normal" in="SourceGraphic" in2="effect1_dropShadow_1_9" result="shape"/>
</filter>
<filter id="filter4_d_1_9" x="280.531" y="2.40625" width="49.9375" height="44.0625" filterUnits="userSpaceOnUse" color-interpolation-filters="sRGB">
<feFlood flood-opacity="0" result="BackgroundImageFix"/>
<feColorMatrix in="SourceAlpha" type="matrix" values="0 0 0 0 0 0 0 0 0 0 0 0 0 0 0 0 0 0 127 0" result="hardAlpha"/>
<feOffset dy="1.95833"/>
<feGaussianBlur stdDeviation="3.91667"/>
<feComposite in2="hardAlpha" operator="out"/>
<feColorMatrix type="matrix" values="0 0 0 0 0.883333 0 0 0 0 0.0184028 0 0 0 0 0.0184028 0 0 0 0.46 0"/>
<feBlend mode="normal" in2="BackgroundImageFix" result="effect1_dropShadow_1_9"/>
<feBlend mode="normal" in="SourceGraphic" in2="effect1_dropShadow_1_9" result="shape"/>
</filter>
<filter id="filter5_d_1_9" x="236.387" y="4.69271" width="44.2257" height="39.3299" filterUnits="userSpaceOnUse" color-interpolation-filters="sRGB">
<feFlood flood-opacity="0" result="BackgroundImageFix"/>
<feColorMatrix in="SourceAlpha" type="matrix" values="0 0 0 0 0 0 0 0 0 0 0 0 0 0 0 0 0 0 127 0" result="hardAlpha"/>
<feOffset dy="1.95833"/>
<feGaussianBlur stdDeviation="3.91667"/>
<feComposite in2="hardAlpha" operator="out"/>
<feColorMatrix type="matrix" values="0 0 0 0 0.883333 0 0 0 0 0.0184028 0 0 0 0 0.0184028 0 0 0 0.76 0"/>
<feBlend mode="normal" in2="BackgroundImageFix" result="effect1_dropShadow_1_9"/>
<feBlend mode="normal" in="SourceGraphic" in2="effect1_dropShadow_1_9" result="shape"/>
</filter>
<clipPath id="clip0_1_9">
<rect width="517" height="43" fill="white"/>
</clipPath>
</defs>
</svg>
