<svg width="32" height="32" viewBox="0 0 32 32" fill="none" xmlns="http://www.w3.org/2000/svg">
<path d="M6 13C4.61929 13 3.5 14.1193 3.5 15.5C3.5 16.8807 4.61929 18 6 18C7.38071 18 8.5 16.8807 8.5 15.5C8.5 14.1193 7.38071 13 6 13Z" fill="black"/>
<path d="M13.5 15.5C13.5 14.1193 14.6193 13 16 13C17.3807 13 18.5 14.1193 18.5 15.5C18.5 16.8807 17.3807 18 16 18C14.6193 18 13.5 16.8807 13.5 15.5Z" fill="black"/>
<path d="M23.5 15.5C23.5 14.1193 24.6193 13 26 13C27.3807 13 28.5 14.1193 28.5 15.5C28.5 16.8807 27.3807 18 26 18C24.6193 18 23.5 16.8807 23.5 15.5Z" fill="black"/>
</svg>
