<svg xmlns="http://www.w3.org/2000/svg" fill="none" style="max-height:500px" width="390" height="280.69">
  <mask height="277" width="647" y="-17" x="-113" maskUnits="userSpaceOnUse" style="mask-type:alpha" id="a">
    <path stroke="#000" fill="#D9D9D9" d="M-110.75-3.69c-11.42 60.02 44.59 134.18 78.9 184.73 34.23 50.41 38.59 66.28 98.61 76.78 51.75 9.05 99.92-26.34 152.44-27.61 52.17-1.27 103.82 38.9 152.56 20.23 49.25-18.85 74.45-72.49 101.77-117.6 28.22-46.6 61.91-94.67 59.77-149.1L-110.75-3.69Z"/>
  </mask>
  <g mask="url(#a)">
    <path fill="#fff" d="M0 78.2c1.95.15 6.05.18 6.83-.91.98-1.37.98-2.28 2.93-3.65 1.95-1.37 2.93-3.64 8.3-5.01 5.37-1.37 4.88-3.2 9.27-2.74 4.4.46 6.35-1.82 7.33-2.73.97-.91 3.9.45 5.36-.91 1.47-1.37 1.96-3.65 5.37-3.65 3.42 0 1.47-1.82 3.9-1.82 2.45 0 2.45 1.82 6.35 1.82 3.9 0 9.28.45 10.74-1.37 1.47-1.82 3.42-8.66 10.25-10.03 4.2-.84 4.53-.82 4.5-.78l.38-.13c1.47-.45 4.88-6.38 6.35-6.38 1.46 0 6.83-.46 8.3-.91 1.46-.46 1.46-2.74 4.88-2.74 3.41 0 8.3-12.3 16.1-15.04 7.81-2.74 7.33-7.3 9.28-7.75 1.95-.46 5.37-4.1 6.34-4.1.98 0 3.42-1.37 5.37-1.37 1.96 0 3.42 2.28 4.88 2.28 1.47 0 .98 3.19 4.4 3.19 3.41 0 4.39-1.82 6.34 0 1.96 1.82 2.93 5.01 5.37 5.01s5.37 1.37 7.32 1.37c1.96 0 6.84.91 7.32 3.65.5 2.73 1.47 2.73 2.93 2.73 1.47 0 6.84 0 8.3 2.28 1.47 2.28 3.42 5.93 5.86 5.93 2.44 0 6.83 2.73 6.83 3.65 0 .9 5.37 5.01 6.35 5.01.97 0 3.9-.46 4.88 0 .97.46 3.9 4.56 5.37 4.56 1.46 0 3.9.45 4.88-.91.97-1.37 5.37-6.38 7.8-6.84 2.45-.46.98-1.37 2.94-1.82 1.95-.46 4.88 1.82 6.34 1.36 1.47-.45 6.35-5.47 8.79-5.47 2.44 0 6.83-.45 7.8-2.73.98-2.28 4.4-1.83 4.89-2.28.49-.46 7.32 1.82 8.78 5.47 1.47 3.65 11.72 10.94 12.7 10.94.97 0 4.39-.46 5.85-1.37 1.47-.91 8.3-1.37 9.76 1.37 1.47 2.73 3.42 4.56 3.9 4.56.5 0 5.38 2.73 7.33 2.28 1.95-.46 9.27 11.4 11.71 11.4 2.45 0 5.86 6.38 6.84 5.92.98-.46 4.4 0 6.83 1.82 2.44 1.83 4.4-1.36 6.35-1.82 1.95-.46 7.8-1.37 9.27 0 1.47 1.37 5.37.91 6.83-.46a8.37 8.37 0 0 1 5.86-2.28c2.44 0 8.3 0 9.76 1.83 1.47 1.82 4.89.9 5.37 0a3.3 3.3 0 0 1 2.93-1.83c1.47 0 3.42-4.55 4.4-4.55.97 0 4.88 0 5.85-.46.98-.46 4.88-4.56 6.84-4.1 1.95.45 4.88-1.83 4.88-2.28 0-.46 3.41-2.74 5.37-1.37 1.95 1.37 1.46-.46 2.93-.46 1.46 0 7.32 0 8.3 3.2 2.6-.46 8.1-1.19 9.27-.46 1.46.91 2.44 6.84 4.88 6.84s4.39 4.56 7.8 4.1c3.42-.46 6.84.91 9.28 2.28 2.44 1.37 3.42.46 4.88.46 1.47 0 3.42 1.82 4.88 3.19 1.17 1.09.5 84.33 0 125.81H0V78.2Z"/>
    <path fill="#DCE5EE" d="M457.55 176.3c-2.27.19-7.02.22-7.93-1.14-1.13-1.7-1.13-2.83-3.4-4.53-2.26-1.7-3.4-4.53-9.62-6.22-6.23-1.7-5.67-3.97-10.76-3.4-5.1.56-7.36-2.27-8.5-3.4-1.13-1.13-4.53.57-6.23-1.13-1.7-1.7-2.26-4.53-6.23-4.53-3.96 0-1.7-2.27-4.52-2.27-2.84 0-2.84 2.27-7.37 2.27s-10.75.56-12.45-1.7c-1.7-2.27-3.97-10.76-11.9-12.46-4.87-1.04-5.25-1.02-5.21-.97a9.39 9.39 0 0 0-.45-.16c-1.7-.57-5.66-7.93-7.36-7.93-1.7 0-7.93-.56-9.63-1.13-1.7-.57-1.7-3.4-5.66-3.4s-9.63-15.29-18.69-18.69c-9.06-3.4-8.49-9.06-10.75-9.62-2.27-.57-6.23-5.1-7.37-5.1-1.13 0-3.96-1.7-6.22-1.7-2.27 0-3.97 2.83-5.67 2.83-1.7 0-1.13 3.97-5.1 3.97-3.96 0-5.09-2.27-7.35 0-2.27 2.26-3.4 6.23-6.23 6.23-2.83 0-6.23 1.7-8.5 1.7-2.26 0-7.93 1.13-8.5 4.53-.56 3.4-1.7 3.4-3.39 3.4-1.7 0-7.93 0-9.63 2.82-1.7 2.84-3.96 7.37-6.8 7.37-2.82 0-7.92 3.4-7.92 4.53 0 1.13-6.23 6.22-7.36 6.22s-4.53-.56-5.66 0c-1.14.57-4.53 5.67-6.23 5.67-1.7 0-4.53.56-5.67-1.14-1.13-1.7-6.22-7.92-9.05-8.49-2.84-.56-1.14-1.7-3.4-2.26-2.27-.57-5.66 2.26-7.36 1.7-1.7-.57-7.36-6.8-10.2-6.8-2.83 0-7.92-.57-9.06-3.4-1.13-2.83-5.1-2.26-5.66-2.83-.57-.57-8.5 2.27-10.2 6.8-1.7 4.53-13.58 13.59-14.72 13.59-1.13 0-5.1-.57-6.79-1.7-1.7-1.14-9.63-1.7-11.32 1.7-1.7 3.4-3.97 5.66-4.54 5.66-.56 0-6.22 3.4-8.49 2.83-2.27-.57-10.76 14.16-13.59 14.16s-6.8 7.92-7.93 7.36c-1.13-.57-5.1 0-7.93 2.26-2.83 2.27-5.1-1.7-7.36-2.26-2.26-.57-9.06-1.7-10.76 0-1.7 1.7-6.22 1.13-7.92-.57a9.38 9.38 0 0 0-6.8-2.83c-2.83 0-9.63 0-11.32 2.27-1.7 2.26-5.67 1.13-6.23 0a3.82 3.82 0 0 0-3.4-2.27c-1.7 0-3.96-5.66-5.1-5.66-1.13 0-5.66 0-6.8-.57-1.12-.56-5.65-5.66-7.92-5.1-2.26.57-5.66-2.26-5.66-2.83 0-.56-3.97-3.4-6.23-1.7-2.27 1.7-1.7-.56-3.4-.56s-8.5 0-9.63 3.96c-3.02-.56-9.4-1.47-10.75-.56-1.7 1.13-2.84 8.49-5.67 8.49s-5.1 5.66-9.06 5.1c-3.96-.57-7.92 1.13-10.76 2.83-2.83 1.7-3.96.56-5.66.56-1.7 0-3.96 2.27-5.66 3.97-1.36 1.36-.57 104.76 0 156.29h530.59V176.3Z"/>
    <path fill="#C4D2E0" d="M-177 229.97c2.7.23 8.37.28 9.45-1.34 1.35-2.03 1.35-3.38 4.05-5.4 2.7-2.03 4.05-5.4 11.48-7.43 7.43-2.03 6.75-4.73 12.83-4.06 6.07.68 8.78-2.7 10.13-4.05 1.35-1.35 5.4.68 7.42-1.35 2.03-2.02 2.7-5.4 7.43-5.4 4.73 0 2.02-2.7 5.4-2.7 3.38 0 3.38 2.7 8.78 2.7 5.4 0 12.83.68 14.85-2.02 2.03-2.7 4.73-12.83 14.18-14.86 5.82-1.24 6.26-1.21 6.22-1.16l.53-.19c2.03-.67 6.75-9.45 8.78-9.45 2.02 0 9.45-.67 11.48-1.35 2.02-.67 2.02-4.05 6.75-4.05 4.72 0 11.48-18.23 22.28-22.28 10.8-4.05 10.13-10.8 12.83-11.48 2.7-.67 7.42-6.07 8.77-6.07 1.35 0 4.73-2.03 7.43-2.03 2.7 0 4.73 3.38 6.75 3.38 2.03 0 1.35 4.72 6.08 4.72 4.72 0 6.08-2.7 8.78 0 2.7 2.7 4.05 7.43 7.42 7.43 3.38 0 7.43 2.02 10.13 2.02 2.7 0 9.45 1.35 10.13 5.4.67 4.06 2.02 4.06 4.05 4.06 2.02 0 9.45 0 11.48 3.37 2.02 3.38 4.72 8.78 8.1 8.78 3.37 0 9.45 4.05 9.45 5.4 0 1.35 7.43 7.43 8.78 7.43 1.35 0 5.4-.68 6.75 0 1.35.67 5.4 6.75 7.43 6.75 2.02 0 5.4.67 6.75-1.35 1.35-2.03 7.42-9.45 10.8-10.13 3.38-.67 1.35-2.02 4.05-2.7 2.7-.68 6.75 2.7 8.78 2.03 2.02-.68 8.78-8.1 12.15-8.1 3.38 0 9.45-.68 10.8-4.06 1.35-3.37 6.08-2.7 6.76-3.37.67-.68 10.12 2.7 12.15 8.1 2.02 5.4 16.2 16.2 17.55 16.2 1.35 0 6.08-.67 8.1-2.02 2.03-1.35 11.48-2.03 13.5 2.02 2.03 4.05 4.73 6.75 5.4 6.75.68 0 7.44 4.06 10.14 3.38 2.7-.68 12.82 16.88 16.2 16.88 3.38 0 8.1 9.45 9.45 8.78 1.35-.68 6.08 0 9.45 2.7 3.38 2.7 6.08-2.03 8.78-2.7 2.7-.68 10.8-2.03 12.83 0 2.02 2.02 7.43 1.35 9.45-.68a11.18 11.18 0 0 1 8.1-3.37c3.38 0 11.48 0 13.5 2.7 2.03 2.7 6.76 1.35 7.43 0a4.56 4.56 0 0 1 4.05-2.7c2.03 0 4.73-6.76 6.08-6.76 1.35 0 6.75 0 8.1-.67 1.35-.68 6.75-6.75 9.45-6.08 2.7.68 6.76-2.7 6.76-3.37 0-.68 4.72-4.05 7.42-2.03 2.7 2.03 2.03-.67 4.05-.67 2.03 0 10.13 0 11.48 4.72 3.6-.67 11.21-1.75 12.83-.67 2.03 1.35 3.38 10.12 6.75 10.12 3.38 0 6.08 6.76 10.8 6.08 4.73-.67 9.46 1.35 12.83 3.38 3.38 2.02 4.73.67 6.75.67 2.03 0 4.73 2.7 6.76 4.73 1.62 1.62.67 124.9 0 186.34H-177V229.98Z"/>
    <path fill="#F1F1F1" d="M165.93 266.48c-20.84-4.14-27.71-23.1-28.54-32.06h105.69c-3.3 24.96-22.04 30.58-24.18 31.22h-.02c-2.07.63-26.89 6-52.95.84Z"/>
    <g clip-path="url(#b)">
      <path fill="#F1F1F1" d="M241 146.52c2.07 30.6-22.14 35.57-50.47 35.57-28.32 0-53.15-4.55-50.46-35.57 2.37-27.3 22.14-41.99 50.47-41.99 28.32 0 48.77 16.96 50.46 41.99Z"/>
      <path fill="#3C3135" d="M145.66 126.66c2.35-3.58 8.07-10.86 13.86-11.36 7.24-.62 19.23 4.97 19.23 19.44v16.34h11.59v.01h11.58v-16.34c0-14.47 12-20.06 19.23-19.44 5.8.5 11.72 7.97 14.07 11.56-4.78-10.3-14.43-16.89-24.2-20.05-7.82-2.52-15.6-2.77-20.68-2.68-5.1-.1-12.86.15-20.69 2.68-9.77 3.15-19.2 9.55-23.99 19.84Z" clip-rule="evenodd" fill-rule="evenodd"/>
      <path fill="#DF921C" d="M182.9 169.68c-10.43-1.16-17.59-6.69-19.86-9.3l55.43-.42c-4.56 7.24-22.55 11.17-35.58 9.72Z"/>
      <path fill="#FFC921" d="M190.55 166.4c-15.23.49-25.51-4.63-28.75-7.25 0-.62 8.9-11.78 28.75-12.4 19.85-.63 28.54 12.4 27.92 13.03-.62.62-8.9 6-27.92 6.61Z"/>
      <ellipse fill="#2C2728" transform="rotate(36.4 204.9 153.66)" ry="1.65" rx="2.48" cy="153.66" cx="204.9"/>
      <ellipse fill="#2C2728" transform="scale(-1 1) rotate(36.4 -317.7 -193.06)" ry="1.65" rx="2.48" cy="1.65" cx="2.48"/>
      <ellipse fill="#292826" transform="rotate(-15.13 226.12 141.03)" ry="12.78" rx="9.61" cy="141.03" cx="226.12"/>
      <ellipse fill="#292826" transform="scale(-1 1) rotate(-15.13 409.7 694.74)" ry="12.78" rx="9.61" cy="12.78" cx="9.61"/>
    </g>
    <path fill="#F1F1F1" d="m154.76 176.1-2.9 2.68c2.28 6.83 21.16 6.2 42 6.2 15.71 0 27.36-3.5 32.67-6.61l-1.24-2.28h-70.53Z"/>
    <path fill="#980808" d="M226.79 177.75c1.24.76 3.72 2.36 3.72 2.69 0 .41 9.51 5.79 11.58 10.34 2.07 4.55 11.38 22.13 11.79 22.34.41.2.62 1.44 1.45 1.86.82.41 2.9.82 2.9 2.48 0 1.65-2.08 6.62-3.52 8.06-1.45 1.45-4.55 3.73-7.24 2.28-2.69-1.45-1.24-3.1-1.66-3.93-.26-.53-.78-1.14-1.33-2-.3.48-.32 1.59-.32 2.62s1.24 4.76 1.03 6.41c-.2 1.66-1.65 3.31-7.24 7.03-5.58 3.73-27.71 5.59-29.36 5.8-1.66.2-27.51.82-46.54-1.04-19.03-1.86-23.17-6.82-25.44-8.9-2.28-2.06-1.86-6.4-1.03-7.44.66-.83.52-3.24.37-4.34-.18.4-.3.62-.37.62-.62 0-1.25 1.24-1.45 2.48-.2 1.24-2.9 4.34-6.41 2.69-3.52-1.66-5.17-7.65-5.59-9.72-.41-2.07 2.07-2.69 2.7-2.9.61-.2 1.23-1.03 1.44-2.06.2-1.04 4.55-7.86 8.07-15.93 3.51-8.07 13.65-15.93 14.27-16.34.5-.33 2.96-2.2 4.13-3.1.62 2.9 16.13 4.96 39.71 5.58 18.87.5 30.75-3.51 34.34-5.58Z"/>
    <path fill="#F1F1F1" d="M128.36 227.6c-.67 0-3.45-3.45-4.76-5.18a6.56 6.56 0 0 0-1.45 3.1c-.41 2.07 1.24 4.76 2.69 4.97 1.16.16 2.83-1.86 3.52-2.9ZM251.97 227.6c.66 0 3.45-3.45 4.76-5.18a6.56 6.56 0 0 1 1.45 3.1c.41 2.07-1.24 4.76-2.7 4.97-1.15.16-2.82-1.86-3.5-2.9Z"/>
    <path fill="#fff" d="M179.14 208.89a1.19 1.19 0 0 1 1.29-.34c.15.05.29.13.4.24l3.84 3.42-1.6 1.79-3.83-3.42a1.2 1.2 0 0 1-.1-1.7ZM200.33 214l-1.6-1.8 3.84-3.41a1.2 1.2 0 0 1 1.6 1.8l-3.84 3.41Z"/>
    <path fill="#fff" d="M201.93 216.22c.85 3.79 2.02 6.22 1.44 7.62-.3.74-.94 1.35-1.98 1.35-1.62 0-1.62-1.9-3.24-1.9s-1.62 1.9-3.25 1.9c-1.62 0-1.62-1.9-3.24-1.9s-1.62 1.9-3.24 1.9c-1.63 0-1.63-1.9-3.25-1.9s-1.62 1.9-3.24 1.9c-.96 0-1.5-.56-1.85-1.22-.83-1.57 1.1-5.04 1.85-8.1.83-3.37.76-7.57.87-10.11.21-4.9 3.97-8.86 8.86-8.86 4.9 0 8.51 3.98 8.87 8.86.19 2.63.62 7 1.4 10.46Z"/>
    <path fill="#292A2E" d="M188.33 206.33a.98.98 0 1 0 0-1.96.98.98 0 0 0 0 1.96ZM195.06 206.33a.98.98 0 1 0 0-1.96.98.98 0 0 0 0 1.96Z"/>
    <path fill="#fff" d="M193.46 208a.38.38 0 0 1 .3.14.37.37 0 0 1 .08.32c-.21.98-1.09 1.6-2.14 1.6s-1.92-.62-2.13-1.6a.37.37 0 0 1 .21-.42c.05-.03.1-.04.16-.04h3.52Z"/>
    <path fill="#292A2E" d="M191.7 210.18c-1.13 0-2.03-.68-2.25-1.7a.51.51 0 0 1 0-.22.49.49 0 0 1 .27-.33.5.5 0 0 1 .22-.05h3.52a.51.51 0 0 1 .4.19.5.5 0 0 1 .1.42c-.22 1.01-1.13 1.7-2.26 1.7Zm-1.76-2.06c-.04 0-.08 0-.11.03a.26.26 0 0 0-.15.28c.2.9 1 1.51 2.02 1.51s1.83-.6 2.02-1.5a.26.26 0 0 0-.05-.22.26.26 0 0 0-.1-.07.25.25 0 0 0-.1-.03h-3.53Z"/>
  </g>
  <defs>
    <clipPath id="b">
      <path transform="translate(139.87 104.53)" fill="#fff" d="M0 0h101.25v77.56H0z"/>
    </clipPath>
  </defs>
</svg>
