<svg width="18" height="18" viewBox="0 0 18 18" fill="none" xmlns="http://www.w3.org/2000/svg">
<path fill-rule="evenodd" clip-rule="evenodd" d="M7.33335 14C3.65145 14 0.666687 11.0152 0.666687 7.33329C0.666687 3.65139 3.65145 0.666626 7.33335 0.666626C11.0153 0.666626 14 3.65139 14 7.33329C14 8.87391 13.4774 10.2925 12.5999 11.4214L17.0892 15.9108L15.9107 17.0893L11.4213 12.5999C10.2924 13.4774 8.87392 14 7.33335 14ZM12.3333 7.33333C12.3333 10.0948 10.0948 12.3333 7.33333 12.3333C4.57191 12.3333 2.33333 10.0948 2.33333 7.33333C2.33333 4.57191 4.57191 2.33333 7.33333 2.33333C10.0948 2.33333 12.3333 4.57191 12.3333 7.33333Z" fill="#9264F4"/>
</svg>
