<svg width="29" height="30" viewBox="0 0 29 30" fill="none" xmlns="http://www.w3.org/2000/svg">
<path fill-rule="evenodd" clip-rule="evenodd" d="M20.8846 0.551249C20.6451 0.311759 20.3203 0.177216 19.9816 0.177216C19.6429 0.177216 19.3181 0.311759 19.0786 0.551249L3.42665 16.2032C3.26621 16.3636 3.15141 16.5639 3.09407 16.7834L1.39136 23.3021C1.27679 23.7408 1.40337 24.2073 1.72394 24.5279C2.04452 24.8484 2.51103 24.975 2.94967 24.8604L9.46836 23.1577C9.68789 23.1004 9.88818 22.9856 10.0486 22.8252L25.7006 7.17322C26.1993 6.67451 26.1993 5.86594 25.7006 5.36723L20.8846 0.551249ZM5.47765 17.7642L19.9816 3.26024L22.9916 6.27023L8.48764 20.7742L4.41346 21.8383L5.47765 17.7642Z" fill="white"/>
<path d="M1.92166 27.4205C1.21638 27.4205 0.64463 27.9923 0.64463 28.6975C0.64463 29.4028 1.21638 29.9746 1.92166 29.9746H27.4623C28.1675 29.9746 28.7393 29.4028 28.7393 28.6975C28.7393 27.9923 28.1675 27.4205 27.4623 27.4205H1.92166Z" fill="white"/>
</svg>
