<svg width="22" height="19" viewBox="0 0 22 19" fill="none" xmlns="http://www.w3.org/2000/svg">
<path d="M17.142 0.353117C16.748 0.747117 16.748 1.38511 17.142 1.77911L18.109 2.74612H12.984C12.082 2.74612 11.26 3.26212 10.866 4.07312L10.584 4.65713C10.512 4.80513 10.512 4.97813 10.584 5.12613L11.348 6.70511C11.446 6.90711 11.734 6.90711 11.832 6.70511L12.681 4.95312C12.737 4.83712 12.855 4.76312 12.984 4.76312H18.109L17.142 5.73111C16.748 6.12411 16.748 6.76313 17.142 7.15613C17.536 7.55013 18.174 7.55013 18.568 7.15613L21.257 4.46811C21.65 4.07411 21.65 3.43511 21.257 3.04211L18.568 0.353117C18.174 -0.0408828 17.536 -0.0408828 17.142 0.353117Z" fill="#44EBB9"/>
<path d="M8.48899 13.6071C8.56099 13.4591 8.56099 13.2861 8.48899 13.1381L7.72399 11.5591C7.62599 11.3571 7.33799 11.3571 7.23999 11.5591L6.39199 13.3121C6.33499 13.4281 6.21799 13.5021 6.08899 13.5021H1.72199C1.16499 13.5021 0.713989 13.9531 0.713989 14.5101C0.713989 15.0671 1.16499 15.5181 1.72199 15.5181H6.08899C6.99099 15.5181 7.81299 15.0031 8.20599 14.1911L8.48899 13.6071Z" fill="#44EBB9"/>
<path d="M17.142 17.9121C16.748 17.5181 16.748 16.8791 17.142 16.4861L18.109 15.5181H12.984C12.082 15.5181 11.26 15.0031 10.866 14.1911L6.39199 4.95309C6.33499 4.83709 6.21799 4.76309 6.08899 4.76309H1.72199C1.16499 4.76309 0.713989 4.3121 0.713989 3.7551C0.713989 3.1981 1.16499 2.74609 1.72199 2.74609H6.08899C6.99099 2.74609 7.81299 3.26209 8.20599 4.07309L12.681 13.3121C12.737 13.4281 12.855 13.5021 12.984 13.5021H18.109L17.142 12.5341C16.748 12.1401 16.748 11.5021 17.142 11.1081C17.536 10.7141 18.174 10.7141 18.568 11.1081L21.257 13.7971C21.65 14.1911 21.65 14.8291 21.257 15.2231L18.568 17.9121C18.174 18.3051 17.536 18.3051 17.142 17.9121Z" fill="#44EBB9"/>
</svg>
