<svg width="29" height="30" viewBox="0 0 29 30" fill="none" xmlns="http://www.w3.org/2000/svg">
<path fill-rule="evenodd" clip-rule="evenodd" d="M12.1432 0.426512H17.241C17.5672 0.426304 17.8514 0.426122 18.1198 0.468978C19.1801 0.638288 20.0976 1.29959 20.5935 2.25191C20.719 2.49296 20.8087 2.76264 20.9117 3.07219L21.08 3.57707C21.1085 3.66254 21.1166 3.68673 21.1235 3.70578C21.3875 4.43563 22.072 4.929 22.8479 4.94866C22.8683 4.94917 22.8932 4.94926 22.9838 4.94926H27.5065C28.131 4.94926 28.6372 5.45549 28.6372 6.07994C28.6372 6.7044 28.131 7.21062 27.5065 7.21062H1.87761C1.25316 7.21062 0.746933 6.7044 0.746933 6.07994C0.746933 5.45549 1.25316 4.94926 1.87761 4.94926H6.40046C6.49098 4.94926 6.51597 4.94917 6.53637 4.94866C7.31224 4.92899 7.99671 4.43566 8.26072 3.70582C8.26766 3.68663 8.27564 3.66296 8.30427 3.57707L8.47252 3.07222C8.57548 2.76268 8.6652 2.49296 8.79072 2.25191C9.28663 1.29959 10.2041 0.638288 11.2644 0.468978C11.5328 0.426122 11.817 0.426304 12.1432 0.426512ZM10.1816 4.94926C10.2592 4.79696 10.328 4.6387 10.3872 4.47504C10.4052 4.42534 10.4228 4.37244 10.4455 4.30447L10.5959 3.85308C10.7334 3.44075 10.765 3.35665 10.7964 3.29636C10.9617 2.97892 11.2676 2.75848 11.621 2.70205C11.6881 2.69133 11.7779 2.6879 12.2126 2.6879H17.1717C17.6063 2.6879 17.6961 2.69133 17.7632 2.70205C18.1167 2.75848 18.4225 2.97892 18.5878 3.29636C18.6192 3.35665 18.6508 3.44073 18.7883 3.85308L18.9387 4.3042L18.997 4.47507C19.0562 4.63873 19.125 4.79697 19.2027 4.94926H10.1816Z" fill="#FF0000"/>
<path d="M5.51854 9.77367C5.477 9.15059 4.93823 8.67916 4.31515 8.7207C3.69208 8.76224 3.22065 9.30101 3.26219 9.92409L3.96087 20.4043C4.08976 22.3382 4.19388 23.9002 4.43806 25.126C4.69193 26.4004 5.12373 27.4648 6.01561 28.2992C6.90748 29.1336 7.99828 29.4936 9.28673 29.6622C10.526 29.8243 12.0915 29.8243 14.0296 29.8242H15.3546C17.2926 29.8243 18.8582 29.8243 20.0975 29.6622C21.386 29.4936 22.4768 29.1336 23.3686 28.2992C24.2605 27.4648 24.6923 26.4004 24.9462 25.126C25.1904 23.9002 25.2945 22.3382 25.4234 20.4044L26.122 9.92409C26.1636 9.30101 25.6922 8.76224 25.0691 8.7207C24.446 8.67916 23.9072 9.15059 23.8657 9.77367L23.1723 20.1746C23.0368 22.2066 22.9403 23.6204 22.7284 24.6842C22.5228 25.716 22.2359 26.2622 21.8237 26.6479C21.4115 27.0335 20.8474 27.2835 19.8042 27.4199C18.7287 27.5606 17.3116 27.5629 15.2751 27.5629H14.1092C12.0727 27.5629 10.6555 27.5606 9.58004 27.4199C8.53679 27.2835 7.97272 27.0335 7.56053 26.6479C7.14834 26.2622 6.8614 25.716 6.65584 24.6842C6.44393 23.6204 6.3474 22.2066 6.21193 20.1746L5.51854 9.77367Z" fill="#FF0000"/>
<path d="M10.8107 12.4927C11.432 12.4306 11.9861 12.8839 12.0483 13.5053L12.8021 21.0432C12.8642 21.6645 12.4108 22.2186 11.7895 22.2808C11.1681 22.3429 10.614 21.8895 10.5519 21.2682L9.79813 13.7303C9.73599 13.109 10.1893 12.5549 10.8107 12.4927Z" fill="#FF0000"/>
<path d="M18.5736 12.4927C19.1949 12.5549 19.6483 13.109 19.5861 13.7303L18.8323 21.2682C18.7702 21.8895 18.2161 22.3429 17.5948 22.2808C16.9734 22.2186 16.5201 21.6645 16.5822 21.0432L17.336 13.5053C17.3981 12.8839 17.9522 12.4306 18.5736 12.4927Z" fill="#FF0000"/>
</svg>
